<svg width="13" height="16" viewBox="0 0 13 16" fill="none" xmlns="http://www.w3.org/2000/svg">
<path d="M10.3961 14.8412C9.62928 15.6308 8.79202 15.5062 7.98606 15.1321C7.13316 14.7497 6.35067 14.7331 5.45082 15.1321C4.32404 15.6475 3.72936 15.4978 3.05642 14.8412C-0.762096 10.6601 -0.198708 4.29288 4.13625 4.06014C5.1926 4.11832 5.92813 4.67525 6.54629 4.72512C7.46962 4.52562 8.35383 3.95208 9.33976 4.02689C10.5213 4.12663 11.4133 4.62537 12.0002 5.5231C9.55886 7.0775 10.1379 10.4938 12.3758 11.4498C11.9298 12.6966 11.3507 13.9351 10.3883 14.8495L10.3961 14.8412ZM6.46805 4.01026C6.35067 2.15662 7.76697 0.62716 9.39453 0.477539C9.62145 2.62211 7.56352 4.21807 6.46805 4.01026Z" fill="black"/>
</svg>
