<svg width="15" height="15" viewBox="0 0 15 15" fill="none" xmlns="http://www.w3.org/2000/svg">
<path d="M7.599 6.57872V9.05552H11.6667C11.4633 10.0875 10.4464 12.1515 7.599 12.1515C5.15836 12.1515 3.22619 10.0875 3.22619 7.61072C3.22619 5.13392 5.15836 3.06992 7.599 3.06992C9.0227 3.06992 9.93794 3.68912 10.4464 4.20512L12.3786 2.34752C11.1583 1.10912 9.53117 0.386719 7.599 0.386719C3.63296 0.386719 0.480469 3.58592 0.480469 7.61072C0.480469 11.6355 3.63296 14.8347 7.599 14.8347C11.6667 14.8347 14.4124 11.9451 14.4124 7.81712C14.4124 7.30112 14.4124 6.99152 14.3108 6.57872H7.599Z" fill="black"/>
</svg>
